<?xml version="1.0" standalone="no"?>
<!DOCTYPE svg PUBLIC "-//W3C//DTD SVG 20010904//EN"
 "http://www.w3.org/TR/2001/REC-SVG-20010904/DTD/svg10.dtd">
<svg version="1.0" xmlns="http://www.w3.org/2000/svg"
 width="512.000000pt" height="512.000000pt" viewBox="0 0 512.000000 512.000000"
 preserveAspectRatio="xMidYMid meet">
<metadata>
Created by potrace 1.11, written by Peter Selinger 2001-2013
</metadata>
<g transform="translate(0.000000,512.000000) scale(0.100000,-0.100000)"
fill="#000000" stroke="none">
<path d="M1307 2823 c-3 -1884 -5 -2097 -20 -2178 -44 -239 -103 -363 -201
-420 -12 -7 531 -10 1641 -9 1510 1 1664 3 1722 18 129 33 218 104 269 214
l27 57 0 1520 0 1520 -23 56 c-12 31 -36 77 -53 102 -16 25 -190 198 -387 384
-196 186 -439 418 -540 516 -196 191 -268 245 -371 279 l-66 22 -997 4 -998 3
-3 -2088z m2762 1287 c230 -223 420 -408 420 -413 1 -4 -225 -6 -501 -5 l-503
3 -3 489 -2 488 85 -78 c47 -44 273 -261 504 -484z m51 -1040 l0 -160 -1107 2
-1108 3 -3 158 -3 157 1111 0 1110 0 0 -160z m0 -610 l0 -160 -1110 0 -1110 0
0 160 0 160 1110 0 1110 0 0 -160z m0 -585 l0 -155 -1110 0 -1110 0 0 155 0
155 1110 0 1110 0 0 -155z m0 -615 l0 -160 -1107 2 -1108 3 -3 158 -3 157
1111 0 1110 0 0 -160z"/>
<path d="M505 4856 c-28 -13 -63 -38 -78 -56 -61 -72 -57 59 -57 -1864 l0
-1762 26 -52 c87 -175 333 -173 427 3 l22 40 0 1770 0 1770 -22 41 c-63 118
-201 165 -318 110z"/>
<path d="M812 818 c-42 -46 -107 -77 -181 -84 -79 -9 -146 15 -211 73 l-50 45
0 -157 0 -157 42 -81 c149 -286 250 -292 384 -22 l55 110 -3 155 -3 155 -33
-37z"/>
</g>
</svg>
